<mxfile host="app.diagrams.net" modified="2022-03-05T04:23:25.442Z" agent="5.0 (Macintosh; Intel Mac OS X 10_15_7) AppleWebKit/537.36 (KHTML, like Gecko) Chrome/98.0.4758.109 Safari/537.36" etag="M76zHh97kDA7BLSrWzRx" version="16.6.6" type="github">
  <diagram id="W2U9a0QtCGXcjHivLBc2" name="Page-1">
    <mxGraphModel dx="1773" dy="589" grid="1" gridSize="10" guides="1" tooltips="1" connect="1" arrows="1" fold="1" page="1" pageScale="1" pageWidth="827" pageHeight="1169" math="0" shadow="0">
      <root>
        <mxCell id="0" />
        <mxCell id="1" parent="0" />
        <mxCell id="5EwD0L3jWU_XyUvIek8c-1" value="stations" style="swimlane;fontStyle=0;childLayout=stackLayout;horizontal=1;startSize=26;fillColor=none;horizontalStack=0;resizeParent=1;resizeParentMax=0;resizeLast=0;collapsible=1;marginBottom=0;" parent="1" vertex="1">
          <mxGeometry x="-480" y="47" width="160" height="130" as="geometry" />
        </mxCell>
        <mxCell id="5EwD0L3jWU_XyUvIek8c-2" value="+ id&#xa;" style="text;strokeColor=none;fillColor=none;align=left;verticalAlign=top;spacingLeft=4;spacingRight=4;overflow=hidden;rotatable=0;points=[[0,0.5],[1,0.5]];portConstraint=eastwest;" parent="5EwD0L3jWU_XyUvIek8c-1" vertex="1">
          <mxGeometry y="26" width="160" height="26" as="geometry" />
        </mxCell>
        <mxCell id="5EwD0L3jWU_XyUvIek8c-3" value="+ name" style="text;strokeColor=none;fillColor=none;align=left;verticalAlign=top;spacingLeft=4;spacingRight=4;overflow=hidden;rotatable=0;points=[[0,0.5],[1,0.5]];portConstraint=eastwest;" parent="5EwD0L3jWU_XyUvIek8c-1" vertex="1">
          <mxGeometry y="52" width="160" height="26" as="geometry" />
        </mxCell>
        <mxCell id="5EwD0L3jWU_XyUvIek8c-4" value="+ address" style="text;strokeColor=none;fillColor=none;align=left;verticalAlign=top;spacingLeft=4;spacingRight=4;overflow=hidden;rotatable=0;points=[[0,0.5],[1,0.5]];portConstraint=eastwest;" parent="5EwD0L3jWU_XyUvIek8c-1" vertex="1">
          <mxGeometry y="78" width="160" height="26" as="geometry" />
        </mxCell>
        <mxCell id="5EwD0L3jWU_XyUvIek8c-5" value="+ provice&#xa;" style="text;strokeColor=none;fillColor=none;align=left;verticalAlign=top;spacingLeft=4;spacingRight=4;overflow=hidden;rotatable=0;points=[[0,0.5],[1,0.5]];portConstraint=eastwest;" parent="5EwD0L3jWU_XyUvIek8c-1" vertex="1">
          <mxGeometry y="104" width="160" height="26" as="geometry" />
        </mxCell>
        <mxCell id="5EwD0L3jWU_XyUvIek8c-7" value="trips" style="swimlane;fontStyle=0;childLayout=stackLayout;horizontal=1;startSize=26;fillColor=none;horizontalStack=0;resizeParent=1;resizeParentMax=0;resizeLast=0;collapsible=1;marginBottom=0;" parent="1" vertex="1">
          <mxGeometry x="-210" y="57" width="140" height="156" as="geometry" />
        </mxCell>
        <mxCell id="5EwD0L3jWU_XyUvIek8c-8" value="+ id&#xa;" style="text;strokeColor=none;fillColor=none;align=left;verticalAlign=top;spacingLeft=4;spacingRight=4;overflow=hidden;rotatable=0;points=[[0,0.5],[1,0.5]];portConstraint=eastwest;" parent="5EwD0L3jWU_XyUvIek8c-7" vertex="1">
          <mxGeometry y="26" width="140" height="26" as="geometry" />
        </mxCell>
        <mxCell id="5EwD0L3jWU_XyUvIek8c-10" value="+ toStation&#xa;" style="text;strokeColor=none;fillColor=none;align=left;verticalAlign=top;spacingLeft=4;spacingRight=4;overflow=hidden;rotatable=0;points=[[0,0.5],[1,0.5]];portConstraint=eastwest;" parent="5EwD0L3jWU_XyUvIek8c-7" vertex="1">
          <mxGeometry y="52" width="140" height="26" as="geometry" />
        </mxCell>
        <mxCell id="5EwD0L3jWU_XyUvIek8c-9" value="+ fromStation" style="text;strokeColor=none;fillColor=none;align=left;verticalAlign=top;spacingLeft=4;spacingRight=4;overflow=hidden;rotatable=0;points=[[0,0.5],[1,0.5]];portConstraint=eastwest;" parent="5EwD0L3jWU_XyUvIek8c-7" vertex="1">
          <mxGeometry y="78" width="140" height="26" as="geometry" />
        </mxCell>
        <mxCell id="5EwD0L3jWU_XyUvIek8c-11" value="+ startTime&#xa;&#xa;" style="text;strokeColor=none;fillColor=none;align=left;verticalAlign=top;spacingLeft=4;spacingRight=4;overflow=hidden;rotatable=0;points=[[0,0.5],[1,0.5]];portConstraint=eastwest;" parent="5EwD0L3jWU_XyUvIek8c-7" vertex="1">
          <mxGeometry y="104" width="140" height="26" as="geometry" />
        </mxCell>
        <mxCell id="5EwD0L3jWU_XyUvIek8c-12" value="+ price&#xa;" style="text;strokeColor=none;fillColor=none;align=left;verticalAlign=top;spacingLeft=4;spacingRight=4;overflow=hidden;rotatable=0;points=[[0,0.5],[1,0.5]];portConstraint=eastwest;" parent="5EwD0L3jWU_XyUvIek8c-7" vertex="1">
          <mxGeometry y="130" width="140" height="26" as="geometry" />
        </mxCell>
        <mxCell id="5EwD0L3jWU_XyUvIek8c-13" value="passengerCarCompanies" style="swimlane;fontStyle=0;childLayout=stackLayout;horizontal=1;startSize=26;fillColor=none;horizontalStack=0;resizeParent=1;resizeParentMax=0;resizeLast=0;collapsible=1;marginBottom=0;" parent="1" vertex="1">
          <mxGeometry x="40" y="47" width="176" height="156" as="geometry" />
        </mxCell>
        <mxCell id="5EwD0L3jWU_XyUvIek8c-14" value="+ id&#xa;" style="text;strokeColor=none;fillColor=none;align=left;verticalAlign=top;spacingLeft=4;spacingRight=4;overflow=hidden;rotatable=0;points=[[0,0.5],[1,0.5]];portConstraint=eastwest;" parent="5EwD0L3jWU_XyUvIek8c-13" vertex="1">
          <mxGeometry y="26" width="176" height="26" as="geometry" />
        </mxCell>
        <mxCell id="5EwD0L3jWU_XyUvIek8c-15" value="+ name" style="text;strokeColor=none;fillColor=none;align=left;verticalAlign=top;spacingLeft=4;spacingRight=4;overflow=hidden;rotatable=0;points=[[0,0.5],[1,0.5]];portConstraint=eastwest;" parent="5EwD0L3jWU_XyUvIek8c-13" vertex="1">
          <mxGeometry y="52" width="176" height="26" as="geometry" />
        </mxCell>
        <mxCell id="5EwD0L3jWU_XyUvIek8c-16" value="+ image&#xa;" style="text;strokeColor=none;fillColor=none;align=left;verticalAlign=top;spacingLeft=4;spacingRight=4;overflow=hidden;rotatable=0;points=[[0,0.5],[1,0.5]];portConstraint=eastwest;" parent="5EwD0L3jWU_XyUvIek8c-13" vertex="1">
          <mxGeometry y="78" width="176" height="26" as="geometry" />
        </mxCell>
        <mxCell id="5EwD0L3jWU_XyUvIek8c-17" value="+ description&#xa;&#xa;" style="text;strokeColor=none;fillColor=none;align=left;verticalAlign=top;spacingLeft=4;spacingRight=4;overflow=hidden;rotatable=0;points=[[0,0.5],[1,0.5]];portConstraint=eastwest;" parent="5EwD0L3jWU_XyUvIek8c-13" vertex="1">
          <mxGeometry y="104" width="176" height="26" as="geometry" />
        </mxCell>
        <mxCell id="5EwD0L3jWU_XyUvIek8c-71" value="+ tripId&#xa;&#xa;" style="text;strokeColor=none;fillColor=none;align=left;verticalAlign=top;spacingLeft=4;spacingRight=4;overflow=hidden;rotatable=0;points=[[0,0.5],[1,0.5]];portConstraint=eastwest;" parent="5EwD0L3jWU_XyUvIek8c-13" vertex="1">
          <mxGeometry y="130" width="176" height="26" as="geometry" />
        </mxCell>
        <mxCell id="5EwD0L3jWU_XyUvIek8c-19" value="Vehicles" style="swimlane;fontStyle=0;childLayout=stackLayout;horizontal=1;startSize=26;fillColor=none;horizontalStack=0;resizeParent=1;resizeParentMax=0;resizeLast=0;collapsible=1;marginBottom=0;" parent="1" vertex="1">
          <mxGeometry x="46" y="287" width="170" height="104" as="geometry" />
        </mxCell>
        <mxCell id="5EwD0L3jWU_XyUvIek8c-20" value="+ id" style="text;strokeColor=none;fillColor=none;align=left;verticalAlign=top;spacingLeft=4;spacingRight=4;overflow=hidden;rotatable=0;points=[[0,0.5],[1,0.5]];portConstraint=eastwest;" parent="5EwD0L3jWU_XyUvIek8c-19" vertex="1">
          <mxGeometry y="26" width="170" height="26" as="geometry" />
        </mxCell>
        <mxCell id="5EwD0L3jWU_XyUvIek8c-21" value="+ name" style="text;strokeColor=none;fillColor=none;align=left;verticalAlign=top;spacingLeft=4;spacingRight=4;overflow=hidden;rotatable=0;points=[[0,0.5],[1,0.5]];portConstraint=eastwest;" parent="5EwD0L3jWU_XyUvIek8c-19" vertex="1">
          <mxGeometry y="52" width="170" height="26" as="geometry" />
        </mxCell>
        <mxCell id="5EwD0L3jWU_XyUvIek8c-73" value="+ passengerCarCompanyId&#xa;" style="text;strokeColor=none;fillColor=none;align=left;verticalAlign=top;spacingLeft=4;spacingRight=4;overflow=hidden;rotatable=0;points=[[0,0.5],[1,0.5]];portConstraint=eastwest;" parent="5EwD0L3jWU_XyUvIek8c-19" vertex="1">
          <mxGeometry y="78" width="170" height="26" as="geometry" />
        </mxCell>
        <mxCell id="5EwD0L3jWU_XyUvIek8c-23" value="seats" style="swimlane;fontStyle=0;childLayout=stackLayout;horizontal=1;startSize=26;fillColor=none;horizontalStack=0;resizeParent=1;resizeParentMax=0;resizeLast=0;collapsible=1;marginBottom=0;" parent="1" vertex="1">
          <mxGeometry x="-190" y="455" width="140" height="130" as="geometry" />
        </mxCell>
        <mxCell id="5EwD0L3jWU_XyUvIek8c-24" value="+ id" style="text;strokeColor=none;fillColor=none;align=left;verticalAlign=top;spacingLeft=4;spacingRight=4;overflow=hidden;rotatable=0;points=[[0,0.5],[1,0.5]];portConstraint=eastwest;" parent="5EwD0L3jWU_XyUvIek8c-23" vertex="1">
          <mxGeometry y="26" width="140" height="26" as="geometry" />
        </mxCell>
        <mxCell id="5EwD0L3jWU_XyUvIek8c-25" value="+ name" style="text;strokeColor=none;fillColor=none;align=left;verticalAlign=top;spacingLeft=4;spacingRight=4;overflow=hidden;rotatable=0;points=[[0,0.5],[1,0.5]];portConstraint=eastwest;" parent="5EwD0L3jWU_XyUvIek8c-23" vertex="1">
          <mxGeometry y="52" width="140" height="26" as="geometry" />
        </mxCell>
        <mxCell id="5EwD0L3jWU_XyUvIek8c-26" value="+ status" style="text;strokeColor=none;fillColor=none;align=left;verticalAlign=top;spacingLeft=4;spacingRight=4;overflow=hidden;rotatable=0;points=[[0,0.5],[1,0.5]];portConstraint=eastwest;" parent="5EwD0L3jWU_XyUvIek8c-23" vertex="1">
          <mxGeometry y="78" width="140" height="26" as="geometry" />
        </mxCell>
        <mxCell id="5EwD0L3jWU_XyUvIek8c-81" value="+ vechicledId&#xa;" style="text;strokeColor=none;fillColor=none;align=left;verticalAlign=top;spacingLeft=4;spacingRight=4;overflow=hidden;rotatable=0;points=[[0,0.5],[1,0.5]];portConstraint=eastwest;" parent="5EwD0L3jWU_XyUvIek8c-23" vertex="1">
          <mxGeometry y="104" width="140" height="26" as="geometry" />
        </mxCell>
        <mxCell id="5EwD0L3jWU_XyUvIek8c-27" value="users" style="swimlane;fontStyle=0;childLayout=stackLayout;horizontal=1;startSize=26;fillColor=none;horizontalStack=0;resizeParent=1;resizeParentMax=0;resizeLast=0;collapsible=1;marginBottom=0;" parent="1" vertex="1">
          <mxGeometry x="-430" y="247" width="160" height="208" as="geometry" />
        </mxCell>
        <mxCell id="5EwD0L3jWU_XyUvIek8c-28" value="+ id" style="text;strokeColor=none;fillColor=none;align=left;verticalAlign=top;spacingLeft=4;spacingRight=4;overflow=hidden;rotatable=0;points=[[0,0.5],[1,0.5]];portConstraint=eastwest;" parent="5EwD0L3jWU_XyUvIek8c-27" vertex="1">
          <mxGeometry y="26" width="160" height="26" as="geometry" />
        </mxCell>
        <mxCell id="5EwD0L3jWU_XyUvIek8c-29" value="+ name" style="text;strokeColor=none;fillColor=none;align=left;verticalAlign=top;spacingLeft=4;spacingRight=4;overflow=hidden;rotatable=0;points=[[0,0.5],[1,0.5]];portConstraint=eastwest;" parent="5EwD0L3jWU_XyUvIek8c-27" vertex="1">
          <mxGeometry y="52" width="160" height="26" as="geometry" />
        </mxCell>
        <mxCell id="5EwD0L3jWU_XyUvIek8c-30" value="+ numberPhone" style="text;strokeColor=none;fillColor=none;align=left;verticalAlign=top;spacingLeft=4;spacingRight=4;overflow=hidden;rotatable=0;points=[[0,0.5],[1,0.5]];portConstraint=eastwest;" parent="5EwD0L3jWU_XyUvIek8c-27" vertex="1">
          <mxGeometry y="78" width="160" height="26" as="geometry" />
        </mxCell>
        <mxCell id="5EwD0L3jWU_XyUvIek8c-54" value="+ email" style="text;strokeColor=none;fillColor=none;align=left;verticalAlign=top;spacingLeft=4;spacingRight=4;overflow=hidden;rotatable=0;points=[[0,0.5],[1,0.5]];portConstraint=eastwest;" parent="5EwD0L3jWU_XyUvIek8c-27" vertex="1">
          <mxGeometry y="104" width="160" height="26" as="geometry" />
        </mxCell>
        <mxCell id="5EwD0L3jWU_XyUvIek8c-31" value="+ email" style="text;strokeColor=none;fillColor=none;align=left;verticalAlign=top;spacingLeft=4;spacingRight=4;overflow=hidden;rotatable=0;points=[[0,0.5],[1,0.5]];portConstraint=eastwest;" parent="5EwD0L3jWU_XyUvIek8c-27" vertex="1">
          <mxGeometry y="130" width="160" height="26" as="geometry" />
        </mxCell>
        <mxCell id="5EwD0L3jWU_XyUvIek8c-32" value="+ password" style="text;strokeColor=none;fillColor=none;align=left;verticalAlign=top;spacingLeft=4;spacingRight=4;overflow=hidden;rotatable=0;points=[[0,0.5],[1,0.5]];portConstraint=eastwest;" parent="5EwD0L3jWU_XyUvIek8c-27" vertex="1">
          <mxGeometry y="156" width="160" height="26" as="geometry" />
        </mxCell>
        <mxCell id="5EwD0L3jWU_XyUvIek8c-33" value="+ type" style="text;strokeColor=none;fillColor=none;align=left;verticalAlign=top;spacingLeft=4;spacingRight=4;overflow=hidden;rotatable=0;points=[[0,0.5],[1,0.5]];portConstraint=eastwest;" parent="5EwD0L3jWU_XyUvIek8c-27" vertex="1">
          <mxGeometry y="182" width="160" height="26" as="geometry" />
        </mxCell>
        <mxCell id="5EwD0L3jWU_XyUvIek8c-34" value="tickets" style="swimlane;fontStyle=0;childLayout=stackLayout;horizontal=1;startSize=26;fillColor=none;horizontalStack=0;resizeParent=1;resizeParentMax=0;resizeLast=0;collapsible=1;marginBottom=0;" parent="1" vertex="1">
          <mxGeometry x="-190" y="287" width="140" height="104" as="geometry" />
        </mxCell>
        <mxCell id="5EwD0L3jWU_XyUvIek8c-47" value="+ id" style="text;strokeColor=none;fillColor=none;align=left;verticalAlign=top;spacingLeft=4;spacingRight=4;overflow=hidden;rotatable=0;points=[[0,0.5],[1,0.5]];portConstraint=eastwest;" parent="5EwD0L3jWU_XyUvIek8c-34" vertex="1">
          <mxGeometry y="26" width="140" height="26" as="geometry" />
        </mxCell>
        <mxCell id="5EwD0L3jWU_XyUvIek8c-45" value="+ tripId" style="text;strokeColor=none;fillColor=none;align=left;verticalAlign=top;spacingLeft=4;spacingRight=4;overflow=hidden;rotatable=0;points=[[0,0.5],[1,0.5]];portConstraint=eastwest;" parent="5EwD0L3jWU_XyUvIek8c-34" vertex="1">
          <mxGeometry y="52" width="140" height="26" as="geometry" />
        </mxCell>
        <mxCell id="5EwD0L3jWU_XyUvIek8c-46" value="+ userId&#xa;" style="text;strokeColor=none;fillColor=none;align=left;verticalAlign=top;spacingLeft=4;spacingRight=4;overflow=hidden;rotatable=0;points=[[0,0.5],[1,0.5]];portConstraint=eastwest;" parent="5EwD0L3jWU_XyUvIek8c-34" vertex="1">
          <mxGeometry y="78" width="140" height="26" as="geometry" />
        </mxCell>
        <mxCell id="5EwD0L3jWU_XyUvIek8c-48" value="Relation" style="endArrow=open;html=1;endSize=12;startArrow=diamondThin;startSize=14;startFill=0;edgeStyle=orthogonalEdgeStyle;rounded=0;entryX=0;entryY=0.5;entryDx=0;entryDy=0;exitX=0;exitY=0.5;exitDx=0;exitDy=0;" parent="1" source="5EwD0L3jWU_XyUvIek8c-46" target="5EwD0L3jWU_XyUvIek8c-28" edge="1">
          <mxGeometry relative="1" as="geometry">
            <mxPoint x="-260" y="457" as="sourcePoint" />
            <mxPoint x="-100" y="457" as="targetPoint" />
            <Array as="points">
              <mxPoint x="-250" y="378" />
              <mxPoint x="-250" y="497" />
              <mxPoint x="-470" y="497" />
              <mxPoint x="-470" y="286" />
            </Array>
          </mxGeometry>
        </mxCell>
        <mxCell id="5EwD0L3jWU_XyUvIek8c-49" value="0..n" style="edgeLabel;resizable=0;html=1;align=left;verticalAlign=top;" parent="5EwD0L3jWU_XyUvIek8c-48" connectable="0" vertex="1">
          <mxGeometry x="-1" relative="1" as="geometry">
            <mxPoint x="-50" y="-1" as="offset" />
          </mxGeometry>
        </mxCell>
        <mxCell id="5EwD0L3jWU_XyUvIek8c-50" value="1" style="edgeLabel;resizable=0;html=1;align=right;verticalAlign=top;" parent="5EwD0L3jWU_XyUvIek8c-48" connectable="0" vertex="1">
          <mxGeometry x="1" relative="1" as="geometry" />
        </mxCell>
        <mxCell id="5EwD0L3jWU_XyUvIek8c-51" value="Relation" style="endArrow=open;html=1;endSize=12;startArrow=diamondThin;startSize=14;startFill=0;edgeStyle=orthogonalEdgeStyle;rounded=0;entryX=0;entryY=0.5;entryDx=0;entryDy=0;exitX=0;exitY=0.5;exitDx=0;exitDy=0;" parent="1" source="5EwD0L3jWU_XyUvIek8c-45" target="5EwD0L3jWU_XyUvIek8c-8" edge="1">
          <mxGeometry relative="1" as="geometry">
            <mxPoint x="-180" y="257" as="sourcePoint" />
            <mxPoint x="-20" y="257" as="targetPoint" />
            <Array as="points">
              <mxPoint x="-260" y="352" />
              <mxPoint x="-260" y="96" />
            </Array>
          </mxGeometry>
        </mxCell>
        <mxCell id="5EwD0L3jWU_XyUvIek8c-52" value="0..n" style="edgeLabel;resizable=0;html=1;align=left;verticalAlign=top;" parent="5EwD0L3jWU_XyUvIek8c-51" connectable="0" vertex="1">
          <mxGeometry x="-1" relative="1" as="geometry">
            <mxPoint x="-40" y="-25" as="offset" />
          </mxGeometry>
        </mxCell>
        <mxCell id="5EwD0L3jWU_XyUvIek8c-53" value="1" style="edgeLabel;resizable=0;html=1;align=right;verticalAlign=top;" parent="5EwD0L3jWU_XyUvIek8c-51" connectable="0" vertex="1">
          <mxGeometry x="1" relative="1" as="geometry" />
        </mxCell>
        <mxCell id="5EwD0L3jWU_XyUvIek8c-62" value="Relation" style="endArrow=open;html=1;endSize=12;startArrow=diamondThin;startSize=14;startFill=0;edgeStyle=orthogonalEdgeStyle;rounded=0;exitX=0;exitY=0.5;exitDx=0;exitDy=0;entryX=0;entryY=0.5;entryDx=0;entryDy=0;" parent="1" source="5EwD0L3jWU_XyUvIek8c-9" target="5EwD0L3jWU_XyUvIek8c-2" edge="1">
          <mxGeometry relative="1" as="geometry">
            <mxPoint x="40" y="247" as="sourcePoint" />
            <mxPoint x="-20" y="317" as="targetPoint" />
            <Array as="points">
              <mxPoint x="-250" y="148" />
              <mxPoint x="-250" y="197" />
              <mxPoint x="-510" y="197" />
              <mxPoint x="-510" y="86" />
            </Array>
          </mxGeometry>
        </mxCell>
        <mxCell id="5EwD0L3jWU_XyUvIek8c-63" value="0..n" style="edgeLabel;resizable=0;html=1;align=left;verticalAlign=top;" parent="5EwD0L3jWU_XyUvIek8c-62" connectable="0" vertex="1">
          <mxGeometry x="-1" relative="1" as="geometry">
            <mxPoint x="-30" as="offset" />
          </mxGeometry>
        </mxCell>
        <mxCell id="5EwD0L3jWU_XyUvIek8c-64" value="1" style="edgeLabel;resizable=0;html=1;align=right;verticalAlign=top;" parent="5EwD0L3jWU_XyUvIek8c-62" connectable="0" vertex="1">
          <mxGeometry x="1" relative="1" as="geometry" />
        </mxCell>
        <mxCell id="5EwD0L3jWU_XyUvIek8c-65" value="Relation" style="endArrow=open;html=1;endSize=12;startArrow=diamondThin;startSize=14;startFill=0;edgeStyle=orthogonalEdgeStyle;rounded=0;exitX=0;exitY=0.5;exitDx=0;exitDy=0;entryX=1;entryY=0.5;entryDx=0;entryDy=0;" parent="1" source="5EwD0L3jWU_XyUvIek8c-10" target="5EwD0L3jWU_XyUvIek8c-2" edge="1">
          <mxGeometry relative="1" as="geometry">
            <mxPoint x="-180" y="457" as="sourcePoint" />
            <mxPoint x="-20" y="457" as="targetPoint" />
            <Array as="points">
              <mxPoint x="-290" y="122" />
              <mxPoint x="-290" y="86" />
            </Array>
          </mxGeometry>
        </mxCell>
        <mxCell id="5EwD0L3jWU_XyUvIek8c-66" value="0..n" style="edgeLabel;resizable=0;html=1;align=left;verticalAlign=top;" parent="5EwD0L3jWU_XyUvIek8c-65" connectable="0" vertex="1">
          <mxGeometry x="-1" relative="1" as="geometry">
            <mxPoint x="-40" y="-5" as="offset" />
          </mxGeometry>
        </mxCell>
        <mxCell id="5EwD0L3jWU_XyUvIek8c-67" value="1" style="edgeLabel;resizable=0;html=1;align=right;verticalAlign=top;" parent="5EwD0L3jWU_XyUvIek8c-65" connectable="0" vertex="1">
          <mxGeometry x="1" relative="1" as="geometry" />
        </mxCell>
        <mxCell id="5EwD0L3jWU_XyUvIek8c-68" value="Relation" style="endArrow=open;html=1;endSize=12;startArrow=diamondThin;startSize=14;startFill=0;edgeStyle=orthogonalEdgeStyle;rounded=0;exitX=0;exitY=0.5;exitDx=0;exitDy=0;entryX=1;entryY=0.5;entryDx=0;entryDy=0;" parent="1" source="5EwD0L3jWU_XyUvIek8c-71" target="5EwD0L3jWU_XyUvIek8c-8" edge="1">
          <mxGeometry relative="1" as="geometry">
            <mxPoint x="-110" y="247" as="sourcePoint" />
            <mxPoint x="50" y="247" as="targetPoint" />
          </mxGeometry>
        </mxCell>
        <mxCell id="5EwD0L3jWU_XyUvIek8c-69" value="0..n" style="edgeLabel;resizable=0;html=1;align=left;verticalAlign=top;" parent="5EwD0L3jWU_XyUvIek8c-68" connectable="0" vertex="1">
          <mxGeometry x="-1" relative="1" as="geometry">
            <mxPoint x="-40" as="offset" />
          </mxGeometry>
        </mxCell>
        <mxCell id="5EwD0L3jWU_XyUvIek8c-70" value="1" style="edgeLabel;resizable=0;html=1;align=right;verticalAlign=top;" parent="5EwD0L3jWU_XyUvIek8c-68" connectable="0" vertex="1">
          <mxGeometry x="1" relative="1" as="geometry" />
        </mxCell>
        <mxCell id="5EwD0L3jWU_XyUvIek8c-74" value="Relation" style="endArrow=open;html=1;endSize=12;startArrow=diamondThin;startSize=14;startFill=0;edgeStyle=orthogonalEdgeStyle;rounded=0;entryX=1;entryY=0.5;entryDx=0;entryDy=0;exitX=1;exitY=0.5;exitDx=0;exitDy=0;" parent="1" source="5EwD0L3jWU_XyUvIek8c-73" target="5EwD0L3jWU_XyUvIek8c-14" edge="1">
          <mxGeometry relative="1" as="geometry">
            <mxPoint x="120" y="447" as="sourcePoint" />
            <mxPoint x="280" y="447" as="targetPoint" />
            <Array as="points">
              <mxPoint x="290" y="378" />
              <mxPoint x="290" y="86" />
            </Array>
          </mxGeometry>
        </mxCell>
        <mxCell id="5EwD0L3jWU_XyUvIek8c-75" value="0..n" style="edgeLabel;resizable=0;html=1;align=left;verticalAlign=top;" parent="5EwD0L3jWU_XyUvIek8c-74" connectable="0" vertex="1">
          <mxGeometry x="-1" relative="1" as="geometry">
            <mxPoint x="10" y="-21" as="offset" />
          </mxGeometry>
        </mxCell>
        <mxCell id="5EwD0L3jWU_XyUvIek8c-76" value="1" style="edgeLabel;resizable=0;html=1;align=right;verticalAlign=top;" parent="5EwD0L3jWU_XyUvIek8c-74" connectable="0" vertex="1">
          <mxGeometry x="1" relative="1" as="geometry" />
        </mxCell>
        <mxCell id="5EwD0L3jWU_XyUvIek8c-82" value="Relation" style="endArrow=open;html=1;endSize=12;startArrow=diamondThin;startSize=14;startFill=0;edgeStyle=orthogonalEdgeStyle;rounded=0;entryX=0;entryY=0.5;entryDx=0;entryDy=0;" parent="1" source="5EwD0L3jWU_XyUvIek8c-81" target="5EwD0L3jWU_XyUvIek8c-20" edge="1">
          <mxGeometry relative="1" as="geometry">
            <mxPoint x="-180" y="317" as="sourcePoint" />
            <mxPoint x="-20" y="317" as="targetPoint" />
            <Array as="points">
              <mxPoint x="-20" y="572" />
              <mxPoint x="-20" y="326" />
            </Array>
          </mxGeometry>
        </mxCell>
        <mxCell id="5EwD0L3jWU_XyUvIek8c-83" value="0..n" style="edgeLabel;resizable=0;html=1;align=left;verticalAlign=top;" parent="5EwD0L3jWU_XyUvIek8c-82" connectable="0" vertex="1">
          <mxGeometry x="-1" relative="1" as="geometry">
            <mxPoint x="20" y="-35" as="offset" />
          </mxGeometry>
        </mxCell>
        <mxCell id="5EwD0L3jWU_XyUvIek8c-84" value="1" style="edgeLabel;resizable=0;html=1;align=right;verticalAlign=top;" parent="5EwD0L3jWU_XyUvIek8c-82" connectable="0" vertex="1">
          <mxGeometry x="1" relative="1" as="geometry" />
        </mxCell>
      </root>
    </mxGraphModel>
  </diagram>
</mxfile>
